<svg width="45" height="39" viewBox="0 0 45 39" fill="none" xmlns="http://www.w3.org/2000/svg">
<path fill-rule="evenodd" clip-rule="evenodd" d="M26.5002 9C26.5002 11.2091 24.7093 13 22.5002 13C20.291 13 18.5002 11.2091 18.5002 9C18.5002 6.79086 20.291 5 22.5002 5C24.7093 5 26.5002 6.79086 26.5002 9ZM28.5002 9C28.5002 12.3137 25.8139 15 22.5002 15C19.1864 15 16.5002 12.3137 16.5002 9C16.5002 5.68629 19.1864 3 22.5002 3C25.8139 3 28.5002 5.68629 28.5002 9ZM14.3573 23.5151C15.9739 20.8253 19.0073 19 22.5002 19C25.993 19 29.0264 20.8253 30.643 23.5151C30.9276 23.9885 31.5419 24.1416 32.0153 23.8571C32.4887 23.5726 32.6418 22.9582 32.3573 22.4849C30.3809 19.1966 26.6988 17 22.5002 17C18.3015 17 14.6194 19.1966 12.643 22.4849C12.3585 22.9582 12.5116 23.5726 12.985 23.8571C13.4584 24.1416 14.0727 23.9885 14.3573 23.5151Z" fill="#BFBFBF"/>
<path d="M9.085 37V30.33H12.015C13.415 30.33 14.195 31.29 14.195 32.42C14.195 33.55 13.405 34.51 12.015 34.51H10.255V37H9.085ZM12.995 32.42C12.995 31.78 12.515 31.36 11.855 31.36H10.255V33.48H11.855C12.515 33.48 12.995 33.06 12.995 32.42ZM15.039 37V32.17H16.089V32.88C16.449 32.42 17.029 32.06 17.659 32.06V33.1C17.569 33.08 17.459 33.07 17.329 33.07C16.889 33.07 16.299 33.37 16.089 33.71V37H15.039ZM20.5858 37.12C19.0558 37.12 18.1058 35.97 18.1058 34.58C18.1058 33.2 19.0558 32.05 20.5858 32.05C22.1358 32.05 23.0758 33.2 23.0758 34.58C23.0758 35.97 22.1358 37.12 20.5858 37.12ZM20.5858 36.19C21.4858 36.19 21.9858 35.44 21.9858 34.58C21.9858 33.73 21.4858 32.98 20.5858 32.98C19.6958 32.98 19.1958 33.73 19.1958 34.58C19.1958 35.44 19.6958 36.19 20.5858 36.19ZM27.6382 31.37C27.2882 31.37 26.9882 31.08 26.9882 30.72C26.9882 30.36 27.2882 30.07 27.6382 30.07C27.9982 30.07 28.2882 30.36 28.2882 30.72C28.2882 31.08 27.9982 31.37 27.6382 31.37ZM24.2882 37V33.09H23.4882V32.17H24.2882V31.9C24.2882 30.82 24.9282 30.23 25.8182 30.23C26.1482 30.23 26.4482 30.3 26.6582 30.42L26.4282 31.2C26.3282 31.13 26.1882 31.09 26.0082 31.09C25.5982 31.09 25.3382 31.36 25.3382 31.9V32.17H26.3182V33.09H25.3382V37H24.2882ZM27.1182 37V32.17H28.1682V37H27.1182ZM29.4265 37V30.33H30.4765V37H29.4265ZM31.4386 34.58C31.4386 33.18 32.4586 32.05 33.8886 32.05C35.3386 32.05 36.2686 33.16 36.2686 34.68V34.93H32.5386C32.6186 35.66 33.1686 36.26 34.0786 36.26C34.5486 36.26 35.1086 36.07 35.4486 35.73L35.9286 36.42C35.4486 36.88 34.7386 37.12 33.9686 37.12C32.5186 37.12 31.4386 36.11 31.4386 34.58ZM33.8886 32.91C32.9886 32.91 32.5786 33.6 32.5286 34.19H35.2486C35.2286 33.62 34.8386 32.91 33.8886 32.91Z" fill="#BFBFBF"/>
</svg>
