<svg width="46" height="39" viewBox="0 0 46 39" fill="none" xmlns="http://www.w3.org/2000/svg">
<path fill-rule="evenodd" clip-rule="evenodd" d="M25.75 20H24.75L24.15 20.8L22.75 22.6667L21.35 20.8L20.75 20H19.75H14.75V8H30.75V20H25.75ZM30.75 22H25.75L23.55 24.9333C23.15 25.4667 22.35 25.4667 21.95 24.9333L19.75 22H14.75C13.6454 22 12.75 21.1046 12.75 20V8C12.75 6.89543 13.6454 6 14.75 6H30.75C31.8546 6 32.75 6.89543 32.75 8V20C32.75 21.1046 31.8546 22 30.75 22ZM19.25 13C18.9739 13 18.75 13.2239 18.75 13.5V14.5C18.75 14.7761 18.9739 15 19.25 15H26.25C26.5261 15 26.75 14.7761 26.75 14.5V13.5C26.75 13.2239 26.5261 13 26.25 13H19.25Z" fill="#BFBFBF"/>
<path d="M11.4041 37V30.33H12.5741V37H11.4041ZM17.122 37V33.98C17.122 33.23 16.742 32.98 16.152 32.98C15.612 32.98 15.152 33.3 14.912 33.63V37H13.862V32.17H14.912V32.83C15.232 32.45 15.852 32.05 16.612 32.05C17.652 32.05 18.172 32.61 18.172 33.6V37H17.122ZM19.4359 37V30.33H20.4859V32.84C20.8659 32.33 21.4259 32.05 22.0359 32.05C23.2759 32.05 24.1759 33.03 24.1759 34.59C24.1759 36.18 23.2659 37.12 22.0359 37.12C21.4059 37.12 20.8559 36.82 20.4859 36.34V37H19.4359ZM20.4859 35.55C20.7159 35.91 21.2359 36.19 21.7259 36.19C22.5659 36.19 23.0959 35.53 23.0959 34.59C23.0959 33.65 22.5659 32.98 21.7259 32.98C21.2359 32.98 20.7159 33.28 20.4859 33.64V35.55ZM27.3264 37.12C25.7964 37.12 24.8464 35.97 24.8464 34.58C24.8464 33.2 25.7964 32.05 27.3264 32.05C28.8764 32.05 29.8164 33.2 29.8164 34.58C29.8164 35.97 28.8764 37.12 27.3264 37.12ZM27.3264 36.19C28.2264 36.19 28.7264 35.44 28.7264 34.58C28.7264 33.73 28.2264 32.98 27.3264 32.98C26.4364 32.98 25.9364 33.73 25.9364 34.58C25.9364 35.44 26.4364 36.19 27.3264 36.19ZM33.5749 37L32.3249 35.22L31.0649 37H29.8949L31.6649 34.52L29.9949 32.17H31.1749L32.3249 33.81L33.4649 32.17H34.6449L32.9749 34.52L34.7549 37H33.5749Z" fill="#BFBFBF"/>
<rect x="25.25" width="20" height="15" rx="7.5" fill="#FE2C55"/>
<path d="M31.7663 11V4.82L30.4583 6.176L29.6423 5.324L31.9463 2.996H33.1703V11H31.7663ZM34.5009 11V9.896C37.6089 7.544 38.8209 6.5 38.8209 5.348C38.8209 4.508 38.1009 4.124 37.3689 4.124C36.4329 4.124 35.7129 4.508 35.2089 5.084L34.3929 4.16C35.1009 3.308 36.2289 2.876 37.3449 2.876C38.8929 2.876 40.2489 3.752 40.2489 5.348C40.2489 6.824 38.8929 8.144 36.7449 9.764H40.2969V11H34.5009Z" fill="white"/>
</svg>
