<svg width="45" height="39" viewBox="0 0 45 39" fill="none" xmlns="http://www.w3.org/2000/svg">
<path d="M23.4495 3.24074C23.075 2.91975 22.5224 2.91975 22.148 3.24074L10.8512 12.9237C10.1463 13.5279 10.5736 14.6829 11.502 14.6829H13.1321L14.5202 23.0117C14.6809 23.9761 15.5153 24.6829 16.493 24.6829H21.7987V17.1829C21.7987 16.9068 22.0226 16.6829 22.2987 16.6829H23.2987C23.5749 16.6829 23.7987 16.9068 23.7987 17.1829V24.6829H29.1045C30.0822 24.6829 30.9165 23.9761 31.0773 23.0117L32.4654 14.6829H34.0955C35.0239 14.6829 35.4512 13.5279 34.7463 12.9237L23.4495 3.24074Z" fill="white"/>
<path d="M14.5723 37V34.09H11.1023V37H9.93227V30.33H11.1023V33.06H14.5723V30.33H15.7423V37H14.5723ZM19.2088 37.12C17.6788 37.12 16.7288 35.97 16.7288 34.58C16.7288 33.2 17.6788 32.05 19.2088 32.05C20.7588 32.05 21.6988 33.2 21.6988 34.58C21.6988 35.97 20.7588 37.12 19.2088 37.12ZM19.2088 36.19C20.1088 36.19 20.6088 35.44 20.6088 34.58C20.6088 33.73 20.1088 32.98 19.2088 32.98C18.3188 32.98 17.8188 33.73 17.8188 34.58C17.8188 35.44 18.3188 36.19 19.2088 36.19ZM28.5813 37V33.85C28.5813 33.33 28.3513 32.98 27.7913 32.98C27.3213 32.98 26.8813 33.31 26.6713 33.62V37H25.6213V33.85C25.6213 33.33 25.3913 32.98 24.8213 32.98C24.3613 32.98 23.9313 33.31 23.7113 33.63V37H22.6613V32.17H23.7113V32.83C23.9113 32.53 24.5513 32.05 25.2813 32.05C26.0013 32.05 26.4413 32.41 26.6013 32.94C26.8813 32.5 27.5213 32.05 28.2413 32.05C29.1313 32.05 29.6313 32.53 29.6313 33.51V37H28.5813ZM30.5913 34.58C30.5913 33.18 31.6113 32.05 33.0413 32.05C34.4913 32.05 35.4213 33.16 35.4213 34.68V34.93H31.6913C31.7713 35.66 32.3213 36.26 33.2313 36.26C33.7013 36.26 34.2613 36.07 34.6013 35.73L35.0813 36.42C34.6013 36.88 33.8913 37.12 33.1213 37.12C31.6713 37.12 30.5913 36.11 30.5913 34.58ZM33.0413 32.91C32.1413 32.91 31.7313 33.6 31.6813 34.19H34.4013C34.3813 33.62 33.9913 32.91 33.0413 32.91Z" fill="white"/>
</svg>
