<svg width="155" height="36" viewBox="0 0 155 36" fill="none" xmlns="http://www.w3.org/2000/svg">
<path opacity="0.7" d="M1.688 21V8.994H10.184V11.19H4.244V13.8H10.058V15.996H4.244V21H1.688ZM15.7692 21.216C12.9072 21.216 11.1792 19.128 11.1792 16.644C11.1792 14.178 12.9072 12.09 15.7692 12.09C18.6492 12.09 20.3772 14.178 20.3772 16.644C20.3772 19.128 18.6492 21.216 15.7692 21.216ZM15.7692 19.182C17.1912 19.182 18.0012 18.012 18.0012 16.644C18.0012 15.294 17.1912 14.124 15.7692 14.124C14.3472 14.124 13.5552 15.294 13.5552 16.644C13.5552 18.012 14.3472 19.182 15.7692 19.182ZM21.8931 21V8.994H24.1791V21H21.8931ZM26.2659 21V8.994H28.5519V21H26.2659ZM34.6706 21.216C31.8086 21.216 30.0806 19.128 30.0806 16.644C30.0806 14.178 31.8086 12.09 34.6706 12.09C37.5506 12.09 39.2786 14.178 39.2786 16.644C39.2786 19.128 37.5506 21.216 34.6706 21.216ZM34.6706 19.182C36.0926 19.182 36.9026 18.012 36.9026 16.644C36.9026 15.294 36.0926 14.124 34.6706 14.124C33.2486 14.124 32.4566 15.294 32.4566 16.644C32.4566 18.012 33.2486 19.182 34.6706 19.182ZM48.4265 21L46.5905 15.078L44.7545 21H42.3065L39.6605 12.306H42.0365L43.6565 18.156L45.5645 12.306H47.5985L49.5065 18.156L51.1265 12.306H53.5025L50.8565 21H48.4265ZM55.5825 11.028C54.8445 11.028 54.2145 10.416 54.2145 9.66C54.2145 8.904 54.8445 8.292 55.5825 8.292C56.3385 8.292 56.9505 8.904 56.9505 9.66C56.9505 10.416 56.3385 11.028 55.5825 11.028ZM54.4485 21V12.306H56.7345V21H54.4485ZM64.6893 21V15.744C64.6893 14.538 64.0593 14.124 63.0873 14.124C62.1873 14.124 61.4853 14.628 61.1073 15.15V21H58.8213V12.306H61.1073V13.44C61.6653 12.774 62.7273 12.09 64.1493 12.09C66.0573 12.09 66.9753 13.17 66.9753 14.862V21H64.6893ZM68.8851 23.232L69.9111 21.576C70.6131 22.35 71.5311 22.656 72.6291 22.656C73.7271 22.656 75.0231 22.17 75.0231 20.46V19.578C74.3391 20.442 73.4031 20.946 72.3411 20.946C70.1631 20.946 68.5071 19.416 68.5071 16.518C68.5071 13.674 70.1451 12.09 72.3411 12.09C73.3851 12.09 74.3211 12.54 75.0231 13.422V12.306H77.3271V20.406C77.3271 23.718 74.7711 24.528 72.6291 24.528C71.1351 24.528 69.9651 24.186 68.8851 23.232ZM75.0231 17.922V15.114C74.6451 14.538 73.8171 14.124 73.0611 14.124C71.7651 14.124 70.8651 15.024 70.8651 16.518C70.8651 18.012 71.7651 18.912 73.0611 18.912C73.8171 18.912 74.6451 18.48 75.0231 17.922Z" fill="white"/>
<rect x="65.5" y="5" width="20.0435" height="8" rx="4" fill="#E6436D"/>
<path d="M69.8716 11V6.998H70.5736V10.382H72.3376V11H69.8716ZM72.9712 11V6.998H73.6732V11H72.9712ZM75.6759 11L74.1039 6.998H74.9019L76.1139 10.238L77.3259 6.998H78.1239L76.5519 11H75.6759ZM78.561 11V6.998H81.303V7.616H79.263V8.654H81.261V9.272H79.263V10.382H81.303V11H78.561Z" fill="white"/>
<path d="M94.688 21V8.994H103.184V11.19H97.244V13.8H103.058V15.996H97.244V21H94.688ZM108.769 21.216C105.907 21.216 104.179 19.128 104.179 16.644C104.179 14.178 105.907 12.09 108.769 12.09C111.649 12.09 113.377 14.178 113.377 16.644C113.377 19.128 111.649 21.216 108.769 21.216ZM108.769 19.182C110.191 19.182 111.001 18.012 111.001 16.644C111.001 15.294 110.191 14.124 108.769 14.124C107.347 14.124 106.555 15.294 106.555 16.644C106.555 18.012 107.347 19.182 108.769 19.182ZM114.893 21V12.306H117.179V13.494C117.791 12.72 118.871 12.108 119.951 12.108V14.34C119.789 14.304 119.573 14.286 119.321 14.286C118.565 14.286 117.557 14.7 117.179 15.258V21H114.893ZM125.661 22.35C125.859 22.44 126.165 22.494 126.381 22.494C126.975 22.494 127.371 22.332 127.587 21.864L127.911 21.126L124.383 12.306H126.831L129.099 18.354L131.367 12.306H133.833L129.747 22.422C129.099 24.06 127.947 24.492 126.453 24.528C126.183 24.528 125.607 24.474 125.319 24.402L125.661 22.35ZM138.705 21.216C135.843 21.216 134.115 19.128 134.115 16.644C134.115 14.178 135.843 12.09 138.705 12.09C141.585 12.09 143.313 14.178 143.313 16.644C143.313 19.128 141.585 21.216 138.705 21.216ZM138.705 19.182C140.127 19.182 140.937 18.012 140.937 16.644C140.937 15.294 140.127 14.124 138.705 14.124C137.283 14.124 136.491 15.294 136.491 16.644C136.491 18.012 137.283 19.182 138.705 19.182ZM150.697 21V19.902C150.103 20.568 149.059 21.216 147.637 21.216C145.729 21.216 144.829 20.172 144.829 18.48V12.306H147.115V17.58C147.115 18.786 147.745 19.182 148.717 19.182C149.599 19.182 150.301 18.696 150.697 18.192V12.306H152.983V21H150.697Z" fill="white"/>
<rect x="109.5" y="32" width="29" height="4" fill="white"/>
</svg>
