<svg width="46" height="246" viewBox="0 0 46 246" fill="none" xmlns="http://www.w3.org/2000/svg">
<g filter="url(#filter0_d_16_120)">
<path d="M37 9.99184C37 18.4448 28.55 24.9693 24.7796 27.4599C23.6881 28.1808 22.3123 28.1799 21.2215 27.4579C17.4517 24.9625 9 18.4274 9 9.99184C9 8.31449 9.51362 6.67966 10.4681 5.31893C11.4226 3.95819 12.7696 2.94054 14.3182 2.41012C15.8669 1.87969 17.5387 1.86339 19.0969 2.36352C20.655 2.86365 22.0205 3.85486 23 5.19674C23.9795 3.85486 25.345 2.86365 26.9031 2.36352C28.4613 1.86339 30.1331 1.87969 31.6818 2.41012C33.2304 2.94054 34.5774 3.95819 35.5319 5.31893C36.4864 6.67966 37 8.31449 37 9.99184Z" fill="white"/>
</g>
<g filter="url(#filter1_d_16_120)">
<path d="M4.39414 47V45.896C7.50214 43.544 8.71414 42.5 8.71414 41.348C8.71414 40.508 7.99414 40.124 7.26214 40.124C6.32614 40.124 5.60614 40.508 5.10214 41.084L4.28614 40.16C4.99414 39.308 6.12214 38.876 7.23814 38.876C8.78614 38.876 10.1421 39.752 10.1421 41.348C10.1421 42.824 8.78614 44.144 6.63814 45.764H10.1901V47H4.39414ZM11.4829 45.908L12.2869 44.948C12.8269 45.56 13.5469 45.896 14.4469 45.896C15.4549 45.896 16.0909 45.272 16.0909 44.492C16.0909 43.628 15.4669 43.064 14.4829 43.064C13.7989 43.064 13.2349 43.28 12.7309 43.76L11.7349 43.472V38.996H16.9789V40.232H13.1389V42.548C13.5229 42.164 14.1829 41.852 14.9509 41.852C16.2949 41.852 17.5069 42.8 17.5069 44.432C17.5069 46.1 16.2469 47.144 14.4589 47.144C13.0789 47.144 12.1309 46.676 11.4829 45.908ZM18.3782 43.004C18.3782 40.988 19.3382 38.876 21.5822 38.876C23.8262 38.876 24.7862 40.988 24.7862 43.004C24.7862 45.02 23.8262 47.144 21.5822 47.144C19.3382 47.144 18.3782 45.02 18.3782 43.004ZM23.3582 43.004C23.3582 41.48 22.8902 40.124 21.5822 40.124C20.2742 40.124 19.8062 41.48 19.8062 43.004C19.8062 44.528 20.2742 45.896 21.5822 45.896C22.8902 45.896 23.3582 44.528 23.3582 43.004ZM26.104 48.596L25.54 48.128C25.924 47.9 26.32 47.408 26.404 47C26.368 47.012 26.272 47.036 26.2 47.036C25.792 47.036 25.48 46.724 25.48 46.28C25.48 45.824 25.852 45.452 26.296 45.452C26.788 45.452 27.232 45.848 27.232 46.544C27.232 47.372 26.764 48.128 26.104 48.596ZM28.3494 45.908L29.1534 44.948C29.6934 45.56 30.4134 45.896 31.3134 45.896C32.3214 45.896 32.9574 45.272 32.9574 44.492C32.9574 43.628 32.3334 43.064 31.3494 43.064C30.6654 43.064 30.1014 43.28 29.5974 43.76L28.6014 43.472V38.996H33.8454V40.232H30.0054V42.548C30.3894 42.164 31.0494 41.852 31.8174 41.852C33.1614 41.852 34.3734 42.8 34.3734 44.432C34.3734 46.1 33.1134 47.144 31.3254 47.144C29.9454 47.144 28.9974 46.676 28.3494 45.908ZM40.3927 47L37.7047 43.628L37.0087 44.444V47H35.6047V38.996H37.0087V42.812L40.1407 38.996H41.8807L38.6287 42.776L42.1207 47H40.3927Z" fill="white"/>
</g>
<g filter="url(#filter2_d_16_120)">
<path fill-rule="evenodd" clip-rule="evenodd" d="M37 78.5C37 78.9265 36.9727 79.3476 36.9196 79.7621C36.515 84.0905 32.71 89.8553 24.6569 92.7717C24.336 92.8879 24 92.6476 24 92.3063V89.9922C23.8341 89.9974 23.6674 90 23.5 90C16.0442 90 10 84.8513 10 78.5C10 72.1487 16.0442 67 23.5 67C30.9558 67 37 72.1487 37 78.5ZM18 81C19.1046 81 20 80.1046 20 79C20 77.8954 19.1046 77 18 77C16.8954 77 16 77.8954 16 79C16 80.1046 16.8954 81 18 81ZM24 81C25.1046 81 26 80.1046 26 79C26 77.8954 25.1046 77 24 77C22.8954 77 22 77.8954 22 79C22 80.1046 22.8954 81 24 81ZM32 79C32 80.1046 31.1046 81 30 81C28.8954 81 28 80.1046 28 79C28 77.8954 28.8954 77 30 77C31.1046 77 32 77.8954 32 79Z" fill="white"/>
</g>
<g filter="url(#filter3_d_16_120)">
<path d="M12.0836 112V105.82L10.7756 107.176L9.95961 106.324L12.2636 103.996H13.4876V112H12.0836ZM14.7102 108.004C14.7102 105.988 15.6702 103.876 17.9142 103.876C20.1582 103.876 21.1182 105.988 21.1182 108.004C21.1182 110.02 20.1582 112.144 17.9142 112.144C15.6702 112.144 14.7102 110.02 14.7102 108.004ZM19.6902 108.004C19.6902 106.48 19.2222 105.124 17.9142 105.124C16.6062 105.124 16.1382 106.48 16.1382 108.004C16.1382 109.528 16.6062 110.896 17.9142 110.896C19.2222 110.896 19.6902 109.528 19.6902 108.004ZM21.9847 108.004C21.9847 105.988 22.9447 103.876 25.1887 103.876C27.4327 103.876 28.3927 105.988 28.3927 108.004C28.3927 110.02 27.4327 112.144 25.1887 112.144C22.9447 112.144 21.9847 110.02 21.9847 108.004ZM26.9647 108.004C26.9647 106.48 26.4967 105.124 25.1887 105.124C23.8807 105.124 23.4127 106.48 23.4127 108.004C23.4127 109.528 23.8807 110.896 25.1887 110.896C26.4967 110.896 26.9647 109.528 26.9647 108.004ZM34.4073 112L31.7193 108.628L31.0233 109.444V112H29.6193V103.996H31.0233V107.812L34.1553 103.996H35.8953L32.6433 107.776L36.1353 112H34.4073Z" fill="white"/>
</g>
<g filter="url(#filter4_d_16_120)">
<path d="M12 134.985C12 133.889 12.8954 133 14 133H32C33.1046 133 34 133.889 34 134.985V156.006C34 156.789 33.1289 157.264 32.4631 156.843L23.5369 151.205C23.2093 150.998 22.7907 150.998 22.4631 151.205L13.5369 156.843C12.8712 157.264 12 156.789 12 156.006V134.985Z" fill="white"/>
</g>
<g filter="url(#filter5_d_16_120)">
<path d="M12.7256 174.948C12.7256 173.928 13.5536 173.196 14.5256 172.872C13.6256 172.584 12.8576 171.996 12.8576 170.976C12.8576 169.5 14.3696 168.876 15.7976 168.876C17.2016 168.876 18.7376 169.5 18.7376 170.976C18.7376 171.996 17.9576 172.584 17.0576 172.872C18.0296 173.196 18.8576 173.928 18.8576 174.948C18.8576 176.376 17.4296 177.144 15.7976 177.144C14.1536 177.144 12.7256 176.388 12.7256 174.948ZM17.3096 171.192C17.3096 170.52 16.6496 170.124 15.7976 170.124C14.9216 170.124 14.2736 170.52 14.2736 171.192C14.2736 171.948 15.3056 172.236 15.7976 172.32C16.2896 172.236 17.3096 171.948 17.3096 171.192ZM17.4416 174.768C17.4416 173.94 16.2896 173.568 15.7976 173.508C15.2936 173.568 14.1416 173.94 14.1416 174.768C14.1416 175.464 14.8856 175.896 15.7976 175.896C16.6856 175.896 17.4416 175.464 17.4416 174.768ZM20.1263 176.244L20.7743 175.188C21.1943 175.62 21.6623 175.884 22.4183 175.884C23.8703 175.884 24.5303 174.564 24.5303 173.256V173.016C24.1583 173.556 23.3183 174.144 22.3823 174.144C20.9423 174.144 19.6943 173.256 19.6943 171.552C19.6943 170.076 20.8583 168.864 22.6463 168.864C24.9983 168.864 25.9463 170.772 25.9463 173.004C25.9463 175.308 24.7343 177.132 22.4183 177.132C21.4343 177.132 20.6663 176.784 20.1263 176.244ZM24.5063 171.996C24.4343 171.132 23.9543 170.112 22.7183 170.112C21.6743 170.112 21.1223 170.868 21.1223 171.504C21.1223 172.488 21.8903 172.932 22.7543 172.932C23.4383 172.932 24.1103 172.572 24.5063 171.996ZM31.9653 177L29.2773 173.628L28.5813 174.444V177H27.1773V168.996H28.5813V172.812L31.7133 168.996H33.4533L30.2013 172.776L33.6933 177H31.9653Z" fill="white"/>
</g>
<g filter="url(#filter6_d_16_120)">
<path fill-rule="evenodd" clip-rule="evenodd" d="M24.6193 197.295C23.9893 196.665 22.9122 197.111 22.9122 198.002V203.588C17.0957 204.493 10.8274 207.087 10.0033 218.056C9.93541 218.96 10.9196 219.313 11.5701 218.681C13.2136 217.085 16.2504 215.245 22.9122 215.245V221.174C22.9122 222.064 23.9893 222.511 24.6193 221.881L35.498 211.002C36.279 210.221 36.279 208.955 35.498 208.174L24.6193 197.295Z" fill="white"/>
</g>
<g filter="url(#filter7_d_16_120)">
<path d="M7.51611 242V235.82L6.20811 237.176L5.39211 236.324L7.69611 233.996H8.92011V242H7.51611ZM9.9387 240.848L10.6947 239.924C11.2107 240.524 12.0627 240.896 12.9147 240.896C13.9707 240.896 14.5827 240.416 14.5827 239.672C14.5827 238.88 13.9467 238.544 12.8067 238.544C12.4707 238.544 12.0027 238.544 11.8827 238.556V237.296C12.0267 237.308 12.4947 237.308 12.8067 237.308C13.7427 237.308 14.4507 236.984 14.4507 236.252C14.4507 235.508 13.7307 235.124 12.8307 235.124C12.0147 235.124 11.3427 235.436 10.7667 236.012L10.0467 235.136C10.6587 234.416 11.6307 233.876 12.9627 233.876C14.6907 233.876 15.8547 234.692 15.8547 236.036C15.8547 237.104 14.9427 237.728 14.1147 237.872C14.8947 237.944 15.9747 238.58 15.9747 239.816C15.9747 241.172 14.8107 242.144 12.9627 242.144C11.5347 242.144 10.4787 241.568 9.9387 240.848ZM17.0213 242V240.896C20.1293 238.544 21.3413 237.5 21.3413 236.348C21.3413 235.508 20.6213 235.124 19.8893 235.124C18.9533 235.124 18.2333 235.508 17.7293 236.084L16.9133 235.16C17.6213 234.308 18.7493 233.876 19.8653 233.876C21.4133 233.876 22.7693 234.752 22.7693 236.348C22.7693 237.824 21.4133 239.144 19.2653 240.764H22.8173V242H17.0213ZM24.686 243.596L24.122 243.128C24.506 242.9 24.902 242.408 24.986 242C24.95 242.012 24.854 242.036 24.782 242.036C24.374 242.036 24.062 241.724 24.062 241.28C24.062 240.824 24.434 240.452 24.878 240.452C25.37 240.452 25.814 240.848 25.814 241.544C25.814 242.372 25.346 243.128 24.686 243.596ZM26.9315 240.908L27.7355 239.948C28.2755 240.56 28.9955 240.896 29.8955 240.896C30.9035 240.896 31.5395 240.272 31.5395 239.492C31.5395 238.628 30.9155 238.064 29.9315 238.064C29.2475 238.064 28.6835 238.28 28.1795 238.76L27.1835 238.472V233.996H32.4275V235.232H28.5875V237.548C28.9715 237.164 29.6315 236.852 30.3995 236.852C31.7435 236.852 32.9555 237.8 32.9555 239.432C32.9555 241.1 31.6955 242.144 29.9075 242.144C28.5275 242.144 27.5795 241.676 26.9315 240.908ZM38.9748 242L36.2868 238.628L35.5908 239.444V242H34.1868V233.996H35.5908V237.812L38.7228 233.996H40.4628L37.2108 237.776L40.7028 242H38.9748Z" fill="white"/>
</g>
<defs>
<filter id="filter0_d_16_120" x="8" y="0" width="32" height="32" filterUnits="userSpaceOnUse" color-interpolation-filters="sRGB">
<feFlood flood-opacity="0" result="BackgroundImageFix"/>
<feColorMatrix in="SourceAlpha" type="matrix" values="0 0 0 0 0 0 0 0 0 0 0 0 0 0 0 0 0 0 127 0" result="hardAlpha"/>
<feOffset dx="1" dy="1"/>
<feGaussianBlur stdDeviation="0.5"/>
<feComposite in2="hardAlpha" operator="out"/>
<feColorMatrix type="matrix" values="0 0 0 0 0 0 0 0 0 0 0 0 0 0 0 0 0 0 0.25 0"/>
<feBlend mode="normal" in2="BackgroundImageFix" result="effect1_dropShadow_16_120"/>
<feBlend mode="normal" in="SourceGraphic" in2="effect1_dropShadow_16_120" result="shape"/>
</filter>
<filter id="filter1_d_16_120" x="4.28614" y="38.876" width="39.8346" height="11.72" filterUnits="userSpaceOnUse" color-interpolation-filters="sRGB">
<feFlood flood-opacity="0" result="BackgroundImageFix"/>
<feColorMatrix in="SourceAlpha" type="matrix" values="0 0 0 0 0 0 0 0 0 0 0 0 0 0 0 0 0 0 127 0" result="hardAlpha"/>
<feOffset dx="1" dy="1"/>
<feGaussianBlur stdDeviation="0.5"/>
<feComposite in2="hardAlpha" operator="out"/>
<feColorMatrix type="matrix" values="0 0 0 0 0 0 0 0 0 0 0 0 0 0 0 0 0 0 0.25 0"/>
<feBlend mode="normal" in2="BackgroundImageFix" result="effect1_dropShadow_16_120"/>
<feBlend mode="normal" in="SourceGraphic" in2="effect1_dropShadow_16_120" result="shape"/>
</filter>
<filter id="filter2_d_16_120" x="8" y="65" width="32" height="32" filterUnits="userSpaceOnUse" color-interpolation-filters="sRGB">
<feFlood flood-opacity="0" result="BackgroundImageFix"/>
<feColorMatrix in="SourceAlpha" type="matrix" values="0 0 0 0 0 0 0 0 0 0 0 0 0 0 0 0 0 0 127 0" result="hardAlpha"/>
<feOffset dx="1" dy="1"/>
<feGaussianBlur stdDeviation="0.5"/>
<feComposite in2="hardAlpha" operator="out"/>
<feColorMatrix type="matrix" values="0 0 0 0 0 0 0 0 0 0 0 0 0 0 0 0 0 0 0.25 0"/>
<feBlend mode="normal" in2="BackgroundImageFix" result="effect1_dropShadow_16_120"/>
<feBlend mode="normal" in="SourceGraphic" in2="effect1_dropShadow_16_120" result="shape"/>
</filter>
<filter id="filter3_d_16_120" x="9.95961" y="103.876" width="28.1757" height="10.268" filterUnits="userSpaceOnUse" color-interpolation-filters="sRGB">
<feFlood flood-opacity="0" result="BackgroundImageFix"/>
<feColorMatrix in="SourceAlpha" type="matrix" values="0 0 0 0 0 0 0 0 0 0 0 0 0 0 0 0 0 0 127 0" result="hardAlpha"/>
<feOffset dx="1" dy="1"/>
<feGaussianBlur stdDeviation="0.5"/>
<feComposite in2="hardAlpha" operator="out"/>
<feColorMatrix type="matrix" values="0 0 0 0 0 0 0 0 0 0 0 0 0 0 0 0 0 0 0.25 0"/>
<feBlend mode="normal" in2="BackgroundImageFix" result="effect1_dropShadow_16_120"/>
<feBlend mode="normal" in="SourceGraphic" in2="effect1_dropShadow_16_120" result="shape"/>
</filter>
<filter id="filter4_d_16_120" x="8" y="130" width="32" height="32" filterUnits="userSpaceOnUse" color-interpolation-filters="sRGB">
<feFlood flood-opacity="0" result="BackgroundImageFix"/>
<feColorMatrix in="SourceAlpha" type="matrix" values="0 0 0 0 0 0 0 0 0 0 0 0 0 0 0 0 0 0 127 0" result="hardAlpha"/>
<feOffset dx="1" dy="1"/>
<feGaussianBlur stdDeviation="0.5"/>
<feComposite in2="hardAlpha" operator="out"/>
<feColorMatrix type="matrix" values="0 0 0 0 0 0 0 0 0 0 0 0 0 0 0 0 0 0 0.25 0"/>
<feBlend mode="normal" in2="BackgroundImageFix" result="effect1_dropShadow_16_120"/>
<feBlend mode="normal" in="SourceGraphic" in2="effect1_dropShadow_16_120" result="shape"/>
</filter>
<filter id="filter5_d_16_120" x="12.7256" y="168.864" width="22.9678" height="10.28" filterUnits="userSpaceOnUse" color-interpolation-filters="sRGB">
<feFlood flood-opacity="0" result="BackgroundImageFix"/>
<feColorMatrix in="SourceAlpha" type="matrix" values="0 0 0 0 0 0 0 0 0 0 0 0 0 0 0 0 0 0 127 0" result="hardAlpha"/>
<feOffset dx="1" dy="1"/>
<feGaussianBlur stdDeviation="0.5"/>
<feComposite in2="hardAlpha" operator="out"/>
<feColorMatrix type="matrix" values="0 0 0 0 0 0 0 0 0 0 0 0 0 0 0 0 0 0 0.25 0"/>
<feBlend mode="normal" in2="BackgroundImageFix" result="effect1_dropShadow_16_120"/>
<feBlend mode="normal" in="SourceGraphic" in2="effect1_dropShadow_16_120" result="shape"/>
</filter>
<filter id="filter6_d_16_120" x="8" y="195" width="32" height="32" filterUnits="userSpaceOnUse" color-interpolation-filters="sRGB">
<feFlood flood-opacity="0" result="BackgroundImageFix"/>
<feColorMatrix in="SourceAlpha" type="matrix" values="0 0 0 0 0 0 0 0 0 0 0 0 0 0 0 0 0 0 127 0" result="hardAlpha"/>
<feOffset dx="1" dy="1"/>
<feGaussianBlur stdDeviation="0.5"/>
<feComposite in2="hardAlpha" operator="out"/>
<feColorMatrix type="matrix" values="0 0 0 0 0 0 0 0 0 0 0 0 0 0 0 0 0 0 0.25 0"/>
<feBlend mode="normal" in2="BackgroundImageFix" result="effect1_dropShadow_16_120"/>
<feBlend mode="normal" in="SourceGraphic" in2="effect1_dropShadow_16_120" result="shape"/>
</filter>
<filter id="filter7_d_16_120" x="5.39211" y="233.876" width="37.3107" height="11.72" filterUnits="userSpaceOnUse" color-interpolation-filters="sRGB">
<feFlood flood-opacity="0" result="BackgroundImageFix"/>
<feColorMatrix in="SourceAlpha" type="matrix" values="0 0 0 0 0 0 0 0 0 0 0 0 0 0 0 0 0 0 127 0" result="hardAlpha"/>
<feOffset dx="1" dy="1"/>
<feGaussianBlur stdDeviation="0.5"/>
<feComposite in2="hardAlpha" operator="out"/>
<feColorMatrix type="matrix" values="0 0 0 0 0 0 0 0 0 0 0 0 0 0 0 0 0 0 0.25 0"/>
<feBlend mode="normal" in2="BackgroundImageFix" result="effect1_dropShadow_16_120"/>
<feBlend mode="normal" in="SourceGraphic" in2="effect1_dropShadow_16_120" result="shape"/>
</filter>
</defs>
</svg>
